<svg width="180" height="180" viewBox="0 0 180 180" fill="none" xmlns="http://www.w3.org/2000/svg">
<path d="M90 180C77.55 180 65.85 177.636 54.9 172.908C43.95 168.186 34.425 161.775 26.325 153.675C18.225 145.575 11.814 136.05 7.092 125.1C2.364 114.15 0 102.45 0 90C0 77.55 2.364 65.85 7.092 54.9C11.814 43.95 18.225 34.425 26.325 26.325C34.425 18.225 43.95 11.811 54.9 7.083C65.85 2.361 77.55 0 90 0C102.45 0 114.15 2.361 125.1 7.083C136.05 11.811 145.575 18.225 153.675 26.325C161.775 34.425 168.186 43.95 172.908 54.9C177.636 65.85 180 77.55 180 90C180 102.45 177.636 114.15 172.908 125.1C168.186 136.05 161.775 145.575 153.675 153.675C145.575 161.775 136.05 168.186 125.1 172.908C114.15 177.636 102.45 180 90 180Z" fill="#248456"/>
</svg>
