<svg width="415" height="385" viewBox="0 0 415 385" fill="none" xmlns="http://www.w3.org/2000/svg">
<path d="M123 384.667C82.6528 384.667 44.7361 377.006 9.24999 361.683C-26.2361 346.381 -57.1042 325.604 -83.3542 299.354C-109.604 273.104 -130.381 242.236 -145.683 206.75C-161.006 171.264 -168.667 133.347 -168.667 93C-168.667 52.6528 -161.006 14.7361 -145.683 -20.75C-130.381 -56.2361 -109.604 -87.1042 -83.3542 -113.354C-57.1042 -139.604 -26.2361 -160.39 9.24999 -175.713C44.7361 -191.015 82.6528 -198.667 123 -198.667C163.347 -198.667 201.264 -191.015 236.75 -175.713C272.236 -160.39 303.104 -139.604 329.354 -113.354C355.604 -87.1042 376.381 -56.2361 391.683 -20.75C407.006 14.7361 414.667 52.6528 414.667 93C414.667 133.347 407.006 171.264 391.683 206.75C376.381 242.236 355.604 273.104 329.354 299.354C303.104 325.604 272.236 346.381 236.75 361.683C201.264 377.006 163.347 384.667 123 384.667Z" fill="#0CA36C"/>
</svg>
